<svg xmlns="http://www.w3.org/2000/svg" xmlns:xlink="http://www.w3.org/1999/xlink" width="800" zoomAndPan="magnify" viewBox="0 0 600 599.999999" height="800" preserveAspectRatio="xMidYMid meet" version="1.0"><defs><clipPath id="9d53f73c19"><path d="M 60 237.601562 L 236 237.601562 L 236 359 L 60 359 Z M 60 237.601562 " clip-rule="nonzero"/></clipPath><clipPath id="e7d45bd44a"><path d="M 338 307 L 375 307 L 375 362.101562 L 338 362.101562 Z M 338 307 " clip-rule="nonzero"/></clipPath></defs><rect x="-60" width="720" fill="#ffffff" y="-60" height="719.999999" fill-opacity="1"/><rect x="-60" width="720" fill="#fafafa" y="-60" height="719.999999" fill-opacity="1"/><g clip-path="url(#9d53f73c19)"><path fill="#0a0080" d="M 235.96875 294.878906 C 235.96875 263.300781 196.550781 237.601562 148.203125 237.601562 C 99.632812 237.601562 60.433594 263.300781 60.433594 294.878906 C 60.433594 295.75 60.433594 297.925781 60.433594 298.144531 C 60.433594 331.683594 94.84375 358.910156 148.203125 358.910156 C 201.996094 358.910156 235.96875 331.683594 235.96875 298.144531 Z M 235.96875 294.878906 " fill-opacity="1" fill-rule="nonzero"/></g><path fill="#2abcff" d="M 232.484375 294.878906 C 232.484375 324.714844 194.808594 348.890625 148.203125 348.890625 C 101.59375 348.890625 63.917969 324.714844 63.917969 294.878906 C 63.917969 265.042969 101.59375 240.867188 148.203125 240.867188 C 194.808594 241.085938 232.484375 265.042969 232.484375 294.878906 " fill-opacity="1" fill-rule="nonzero"/><path fill="#fafafa" d="M 120.105469 277.890625 C 120.105469 277.890625 119.234375 278.761719 119.671875 279.632812 C 120.976562 281.375 125.117188 282.246094 129.253906 281.375 C 131.648438 280.722656 134.917969 278.328125 137.964844 275.929688 C 141.230469 273.316406 144.5 270.703125 147.984375 269.613281 C 151.46875 268.527344 153.644531 268.960938 155.171875 269.398438 C 156.914062 269.832031 158.65625 270.921875 161.703125 273.316406 C 167.585938 277.671875 190.671875 297.925781 194.589844 301.414062 C 197.855469 299.886719 212.230469 293.789062 231.613281 289.433594 C 230.308594 278.980469 223.992188 269.398438 214.410156 261.558594 C 201.125 267.21875 184.789062 270.050781 168.671875 262.210938 C 168.671875 262.210938 159.960938 258.070312 151.46875 258.289062 C 138.835938 258.507812 133.390625 264.171875 127.511719 269.832031 Z M 120.105469 277.890625 " fill-opacity="1" fill-rule="nonzero"/><path fill="#fafafa" d="M 193.9375 303.371094 C 193.71875 303.15625 166.714844 279.414062 160.613281 274.84375 C 157.128906 272.226562 155.171875 271.574219 152.992188 271.140625 C 151.902344 270.921875 150.378906 271.140625 149.289062 271.574219 C 146.457031 272.445312 142.757812 274.84375 139.488281 277.457031 C 136.003906 280.285156 132.738281 282.683594 129.90625 283.335938 C 126.203125 284.425781 121.414062 283.335938 119.234375 282.027344 C 118.363281 281.375 117.710938 280.722656 117.492188 280.070312 C 116.621094 278.328125 118.144531 276.800781 118.363281 276.585938 L 125.769531 268.527344 C 126.640625 267.65625 127.511719 266.785156 128.382812 265.914062 C 125.988281 266.128906 123.808594 266.785156 121.632812 267.4375 C 119.015625 268.089844 116.402344 268.960938 113.789062 268.960938 C 112.703125 268.960938 106.820312 268.089844 105.730469 267.65625 C 98.980469 265.914062 93.101562 263.953125 84.171875 259.816406 C 73.5 267.65625 66.53125 277.457031 64.570312 288.34375 C 66.09375 288.78125 68.492188 289.433594 69.578125 289.652344 C 93.535156 294.878906 100.941406 300.539062 102.464844 301.628906 C 103.988281 300.105469 105.949219 299.015625 108.347656 299.015625 C 110.960938 299.015625 113.355469 300.324219 114.878906 302.5 C 116.1875 301.414062 118.144531 300.539062 120.542969 300.539062 C 121.632812 300.539062 122.71875 300.757812 124.027344 301.195312 C 126.640625 302.066406 128.164062 304.027344 128.816406 305.550781 C 129.6875 305.113281 130.777344 304.898438 132.085938 304.898438 C 133.390625 304.898438 134.699219 305.113281 136.003906 305.769531 C 140.359375 307.726562 141.015625 312.082031 140.796875 315.351562 C 141.015625 315.351562 141.449219 315.351562 141.667969 315.351562 C 146.894531 315.351562 151.25 319.707031 151.25 324.933594 C 151.25 326.457031 150.816406 327.980469 150.160156 329.507812 C 151.6875 330.378906 155.171875 332.121094 158.4375 331.683594 C 161.050781 331.46875 161.921875 330.597656 162.359375 329.941406 C 162.574219 329.507812 162.792969 329.289062 162.574219 328.851562 L 155.824219 321.230469 C 155.824219 321.230469 154.734375 320.140625 155.171875 319.707031 C 155.605469 319.269531 156.257812 319.925781 156.695312 320.359375 C 160.179688 323.191406 164.316406 327.546875 164.316406 327.546875 C 164.316406 327.546875 164.753906 328.199219 166.277344 328.417969 C 167.585938 328.636719 169.980469 328.417969 171.722656 327.109375 C 172.15625 326.675781 172.59375 326.238281 172.8125 325.804688 C 174.554688 323.625 172.59375 321.449219 172.59375 321.449219 L 164.753906 312.519531 C 164.753906 312.519531 163.664062 311.429688 164.101562 310.996094 C 164.535156 310.558594 165.1875 311.210938 165.625 311.648438 C 168.019531 313.824219 171.722656 317.3125 174.988281 320.578125 C 175.644531 321.011719 178.691406 322.972656 182.613281 320.359375 C 185.007812 318.835938 185.441406 316.875 185.441406 315.351562 C 185.226562 313.390625 183.699219 312.082031 183.699219 312.082031 L 172.8125 301.195312 C 172.8125 301.195312 171.722656 300.324219 172.15625 299.667969 C 172.59375 299.234375 173.246094 299.886719 173.683594 300.324219 C 177.167969 303.15625 186.53125 311.648438 186.53125 311.648438 C 186.75 311.648438 189.800781 314.042969 193.9375 311.429688 C 195.460938 310.558594 196.332031 309.253906 196.332031 307.511719 C 195.898438 305.113281 193.9375 303.371094 193.9375 303.371094 " fill-opacity="1" fill-rule="nonzero"/><path fill="#fafafa" d="M 141.667969 317.09375 C 139.925781 317.09375 138.183594 317.964844 137.964844 317.964844 C 137.746094 317.964844 137.964844 317.3125 138.183594 316.875 C 138.402344 316.441406 140.578125 309.90625 135.132812 307.511719 C 130.996094 305.769531 128.601562 307.726562 127.730469 308.597656 C 127.511719 308.816406 127.292969 308.816406 127.292969 308.597656 C 127.292969 307.511719 126.640625 304.242188 123.15625 303.15625 C 118.144531 301.628906 114.878906 305.113281 114.007812 306.421875 C 113.574219 303.589844 111.175781 301.195312 108.128906 301.195312 C 104.859375 301.195312 102.246094 303.808594 102.246094 307.074219 C 102.246094 310.339844 104.859375 312.953125 108.128906 312.953125 C 109.652344 312.953125 111.175781 312.300781 112.265625 311.210938 C 112.265625 311.210938 112.265625 311.210938 112.265625 311.429688 C 112.046875 312.953125 111.613281 318.183594 117.058594 320.359375 C 119.234375 321.230469 121.195312 320.578125 122.71875 319.488281 C 123.15625 319.054688 123.15625 319.269531 123.15625 319.707031 C 122.9375 321.011719 123.15625 324.0625 127.292969 325.585938 C 130.34375 326.894531 132.300781 325.585938 133.390625 324.496094 C 133.828125 324.0625 134.046875 324.0625 134.046875 324.933594 C 134.261719 328.851562 137.53125 331.902344 141.449219 331.902344 C 145.585938 331.902344 148.855469 328.636719 148.855469 324.496094 C 149.074219 320.578125 145.804688 317.3125 141.667969 317.09375 " fill-opacity="1" fill-rule="nonzero"/><path fill="#0a0080" d="M 195.027344 300.539062 C 186.75 293.355469 167.367188 276.585938 162.359375 272.664062 C 159.308594 270.484375 157.347656 269.179688 155.605469 268.742188 C 154.734375 268.527344 153.644531 268.308594 152.339844 268.308594 C 151.03125 268.308594 149.507812 268.527344 148.203125 268.960938 C 144.933594 270.050781 141.449219 272.664062 138.183594 275.277344 L 137.964844 275.496094 C 134.917969 277.890625 131.867188 280.285156 129.472656 280.941406 C 128.382812 281.15625 127.292969 281.375 126.421875 281.375 C 123.808594 281.375 121.414062 280.503906 120.542969 279.414062 C 120.324219 279.199219 120.542969 278.980469 120.761719 278.542969 L 127.945312 270.269531 C 133.609375 264.605469 139.054688 259.160156 151.46875 258.941406 C 151.6875 258.941406 151.902344 258.941406 152.121094 258.941406 C 159.960938 258.941406 167.585938 262.429688 168.457031 262.863281 C 175.859375 266.347656 183.265625 268.089844 190.886719 268.089844 C 198.726562 268.089844 206.785156 266.128906 215.496094 262.210938 C 214.625 261.339844 213.539062 260.6875 212.449219 259.816406 C 205.042969 263.082031 197.855469 264.605469 190.886719 264.605469 C 183.917969 264.605469 176.730469 262.863281 169.980469 259.597656 C 169.542969 259.378906 161.050781 255.457031 152.121094 255.457031 C 151.902344 255.457031 151.6875 255.457031 151.46875 255.457031 C 141.015625 255.675781 135.132812 259.378906 131.214844 262.644531 C 127.292969 262.644531 124.027344 263.734375 120.976562 264.605469 C 118.363281 265.257812 115.96875 265.914062 113.789062 265.914062 C 112.917969 265.914062 111.175781 265.914062 111.175781 265.914062 C 108.5625 265.914062 95.714844 262.644531 85.476562 258.726562 C 84.390625 259.378906 83.519531 260.25 82.429688 261.121094 C 93.101562 265.476562 106.167969 268.960938 110.304688 269.179688 C 111.394531 269.179688 112.703125 269.398438 113.789062 269.398438 C 116.402344 269.398438 119.234375 268.742188 121.847656 267.871094 C 123.375 267.4375 125.117188 267 126.859375 266.566406 C 126.421875 267 125.988281 267.4375 125.332031 268.089844 L 117.929688 276.148438 C 117.273438 276.800781 115.96875 278.328125 116.839844 280.285156 C 117.273438 281.15625 117.929688 281.8125 118.800781 282.464844 C 120.542969 283.554688 123.808594 284.425781 126.640625 284.425781 C 127.730469 284.425781 128.816406 284.425781 129.6875 283.988281 C 132.738281 283.335938 136.003906 280.722656 139.488281 277.890625 C 142.320312 275.714844 146.242188 272.882812 149.074219 272.011719 C 149.945312 271.792969 151.03125 271.574219 151.6875 271.574219 C 151.902344 271.574219 152.121094 271.574219 152.339844 271.574219 C 154.300781 271.792969 156.257812 272.445312 159.742188 275.058594 C 165.84375 279.632812 192.847656 303.371094 193.066406 303.589844 C 193.066406 303.589844 194.808594 305.113281 194.589844 307.511719 C 194.589844 308.816406 193.71875 310.125 192.414062 310.996094 C 191.324219 311.648438 190.015625 312.082031 188.925781 312.082031 C 187.183594 312.082031 185.878906 311.210938 185.878906 311.210938 C 185.878906 311.210938 176.515625 302.71875 173.027344 299.886719 C 172.59375 299.453125 171.941406 299.015625 171.503906 299.015625 C 171.285156 299.015625 171.070312 299.234375 170.851562 299.453125 C 170.414062 300.105469 170.851562 300.976562 171.722656 301.628906 L 182.613281 312.519531 C 182.613281 312.519531 183.917969 313.824219 184.136719 315.351562 C 184.136719 317.09375 183.265625 318.617188 181.523438 319.925781 C 180.214844 320.796875 178.910156 321.230469 177.601562 321.230469 C 175.859375 321.230469 174.769531 320.578125 174.554688 320.359375 L 173.027344 318.835938 C 170.199219 316.003906 167.367188 313.171875 165.1875 311.429688 C 164.753906 310.996094 164.101562 310.558594 163.664062 310.558594 C 163.445312 310.558594 163.230469 310.558594 163.011719 310.777344 C 162.792969 310.996094 162.574219 311.648438 163.230469 312.300781 C 163.445312 312.738281 163.664062 312.953125 163.664062 312.953125 L 171.503906 321.882812 C 171.503906 321.882812 173.027344 323.84375 171.722656 325.585938 L 171.503906 326.023438 C 171.285156 326.238281 171.070312 326.457031 170.851562 326.675781 C 169.542969 327.765625 167.800781 327.980469 166.929688 327.980469 C 166.496094 327.980469 166.277344 327.980469 165.84375 327.980469 C 164.972656 327.765625 164.535156 327.546875 164.316406 327.328125 C 163.882812 326.894531 159.960938 322.753906 156.695312 320.140625 C 156.257812 319.707031 155.824219 319.269531 155.171875 319.269531 C 154.953125 319.269531 154.734375 319.269531 154.515625 319.488281 C 153.863281 320.140625 154.953125 321.230469 155.171875 321.667969 L 161.921875 329.070312 C 161.921875 329.070312 161.921875 329.289062 161.703125 329.507812 C 161.488281 329.941406 160.613281 330.597656 158.21875 331.03125 C 158 331.03125 157.566406 331.03125 157.347656 331.03125 C 154.734375 331.03125 152.121094 329.726562 150.816406 329.070312 C 151.46875 327.765625 151.6875 326.238281 151.6875 324.714844 C 151.6875 319.269531 147.113281 314.695312 141.667969 314.695312 C 141.449219 314.695312 141.449219 314.695312 141.230469 314.695312 C 141.449219 312.082031 141.015625 307.292969 136.222656 305.332031 C 134.917969 304.679688 133.390625 304.460938 132.085938 304.460938 C 130.996094 304.460938 129.90625 304.679688 129.035156 305.113281 C 127.945312 303.15625 126.421875 301.628906 124.027344 300.976562 C 122.71875 300.539062 121.632812 300.324219 120.324219 300.324219 C 118.363281 300.324219 116.402344 300.976562 114.660156 302.066406 C 113.136719 300.105469 110.523438 298.796875 108.128906 298.796875 C 105.949219 298.796875 103.773438 299.667969 102.03125 301.195312 C 99.851562 299.667969 91.574219 294.226562 69.363281 289.214844 C 68.273438 289 65.878906 288.34375 64.351562 287.910156 C 64.132812 289.214844 63.917969 290.304688 63.699219 291.613281 C 63.699219 291.613281 67.835938 292.699219 68.707031 292.699219 C 91.359375 297.710938 98.980469 302.9375 100.289062 304.027344 C 99.851562 305.113281 99.632812 306.203125 99.632812 307.292969 C 99.632812 312.082031 103.554688 315.785156 108.128906 315.785156 C 108.5625 315.785156 109.21875 315.785156 109.652344 315.570312 C 110.304688 319.054688 112.703125 321.667969 115.96875 322.972656 C 117.058594 323.410156 117.929688 323.625 119.015625 323.625 C 119.671875 323.625 120.324219 323.625 120.976562 323.410156 C 121.632812 324.933594 123.15625 327.109375 126.203125 328.417969 C 127.292969 328.851562 128.382812 329.070312 129.472656 329.070312 C 130.34375 329.070312 131.214844 328.851562 132.085938 328.636719 C 133.609375 332.339844 137.3125 334.953125 141.449219 334.953125 C 144.0625 334.953125 146.675781 333.863281 148.636719 331.902344 C 150.160156 332.773438 153.644531 334.515625 157.128906 334.515625 C 157.566406 334.515625 158 334.515625 158.4375 334.515625 C 161.921875 334.082031 163.445312 332.773438 164.101562 331.683594 C 164.316406 331.46875 164.316406 331.25 164.535156 331.03125 C 165.40625 331.25 166.277344 331.46875 167.148438 331.46875 C 169.109375 331.46875 170.851562 330.8125 172.59375 329.507812 C 174.335938 328.199219 175.644531 326.457031 175.859375 324.714844 C 176.515625 324.933594 177.167969 324.933594 177.601562 324.933594 C 179.5625 324.933594 181.523438 324.28125 183.265625 323.191406 C 186.75 320.796875 187.402344 317.964844 187.402344 316.003906 C 188.054688 316.222656 188.710938 316.222656 189.363281 316.222656 C 191.105469 316.222656 192.847656 315.570312 194.589844 314.695312 C 196.769531 313.390625 198.074219 311.210938 198.292969 308.816406 C 198.511719 307.074219 198.074219 305.550781 197.203125 304.027344 C 203.085938 301.410156 216.367188 296.621094 232.269531 293.136719 C 232.269531 291.828125 232.050781 290.742188 231.832031 289.433594 C 212.882812 292.917969 198.726562 299.015625 195.027344 300.539062 M 141.667969 331.46875 C 137.964844 331.46875 134.917969 328.636719 134.699219 324.933594 C 134.699219 324.714844 134.699219 323.84375 134.046875 323.84375 C 133.828125 323.84375 133.609375 324.0625 133.171875 324.28125 C 132.300781 324.933594 131.214844 325.804688 129.90625 325.804688 C 129.253906 325.804688 128.382812 325.585938 127.730469 325.367188 C 123.808594 323.84375 123.808594 321.011719 124.027344 319.925781 C 124.027344 319.707031 124.027344 319.269531 123.808594 319.054688 L 123.589844 318.835938 L 123.375 318.835938 C 123.15625 318.835938 122.9375 318.835938 122.71875 319.054688 C 121.414062 319.925781 120.324219 320.359375 119.234375 320.359375 C 118.582031 320.359375 117.929688 320.140625 117.273438 319.925781 C 112.046875 317.964844 112.484375 312.953125 112.703125 311.648438 C 112.703125 311.429688 112.703125 311.210938 112.484375 310.996094 L 112.046875 310.777344 L 111.613281 311.210938 C 110.523438 312.082031 109.21875 312.738281 107.910156 312.738281 C 104.859375 312.738281 102.464844 310.339844 102.464844 307.292969 C 102.464844 304.242188 104.859375 301.847656 107.910156 301.847656 C 110.523438 301.847656 112.917969 303.808594 113.136719 306.421875 L 113.355469 307.945312 L 114.226562 306.640625 C 114.226562 306.421875 116.402344 303.15625 120.542969 303.15625 C 121.195312 303.15625 122.066406 303.371094 122.9375 303.589844 C 126.203125 304.460938 126.640625 307.511719 126.640625 308.597656 C 126.640625 309.253906 127.292969 309.253906 127.292969 309.253906 C 127.511719 309.253906 127.730469 309.035156 127.945312 309.035156 C 128.601562 308.382812 129.90625 307.292969 131.867188 307.292969 C 132.738281 307.292969 133.828125 307.511719 134.917969 307.945312 C 139.925781 310.125 137.746094 316.441406 137.746094 316.65625 C 137.3125 317.746094 137.3125 318.183594 137.746094 318.398438 L 138.183594 318.398438 C 138.402344 318.398438 138.617188 318.398438 139.054688 318.183594 C 139.707031 317.964844 140.796875 317.527344 141.667969 317.527344 C 145.371094 317.527344 148.636719 320.578125 148.636719 324.496094 C 148.636719 328.417969 145.585938 331.46875 141.667969 331.46875 " fill-opacity="1" fill-rule="nonzero"/><path fill="#0a0080" d="M 534.777344 258.507812 C 531.507812 254.585938 526.71875 252.628906 520.402344 252.628906 C 513.867188 252.628906 509.078125 254.585938 506.027344 258.507812 C 502.761719 262.429688 501.238281 267.21875 501.238281 272.664062 C 501.238281 278.109375 502.761719 282.898438 506.027344 286.820312 C 509.296875 290.742188 514.085938 292.699219 520.402344 292.699219 C 526.9375 292.699219 531.726562 290.742188 534.777344 286.820312 C 538.042969 282.898438 539.566406 278.109375 539.566406 272.664062 C 539.566406 267 538.042969 262.429688 534.777344 258.507812 M 526.9375 281.15625 C 525.410156 283.117188 523.234375 284.207031 520.402344 284.207031 C 517.570312 284.207031 515.394531 283.117188 513.867188 281.15625 C 512.34375 279.199219 511.472656 276.148438 511.472656 272.445312 C 511.472656 268.742188 512.34375 265.695312 513.867188 263.734375 C 515.394531 261.773438 517.570312 260.6875 520.402344 260.6875 C 523.234375 260.6875 525.410156 261.773438 526.9375 263.734375 C 528.460938 265.695312 529.332031 268.742188 529.332031 272.445312 C 529.332031 276.148438 528.460938 279.199219 526.9375 281.15625 " fill-opacity="1" fill-rule="nonzero"/><path fill="#0a0080" d="M 453.976562 255.023438 C 450.710938 253.5 447.007812 252.628906 442.871094 252.628906 C 436.554688 252.628906 431.980469 254.371094 429.367188 257.636719 C 427.625 259.816406 426.753906 262.429688 426.535156 265.695312 L 436.117188 265.695312 C 436.335938 264.171875 436.769531 263.082031 437.425781 262.210938 C 438.296875 261.121094 440.039062 260.46875 442.433594 260.46875 C 444.613281 260.46875 446.136719 260.6875 447.226562 261.339844 C 448.3125 261.992188 448.75 263.082031 448.75 264.605469 C 448.75 265.914062 448.097656 266.785156 446.570312 267.4375 C 445.699219 267.871094 444.394531 268.089844 442.652344 268.308594 L 439.382812 268.742188 C 435.464844 269.179688 432.632812 270.050781 430.671875 271.140625 C 426.972656 273.316406 425.226562 276.585938 425.226562 281.15625 C 425.226562 284.640625 426.316406 287.472656 428.496094 289.433594 C 430.671875 291.394531 433.503906 292.265625 436.988281 292.265625 C 458.550781 293.136719 458.332031 280.941406 458.332031 278.328125 L 458.332031 264.171875 C 458.769531 259.816406 457.027344 256.765625 453.976562 255.023438 M 448.96875 276.585938 C 448.96875 279.851562 447.878906 282.246094 446.136719 283.335938 C 444.394531 284.640625 442.433594 285.296875 440.257812 285.296875 C 438.949219 285.296875 437.640625 284.859375 436.769531 284.207031 C 435.898438 283.554688 435.246094 282.246094 435.246094 280.503906 C 435.246094 278.542969 436.117188 277.238281 437.640625 276.367188 C 438.511719 275.929688 440.039062 275.496094 442.214844 275.058594 L 444.394531 274.625 C 445.484375 274.40625 446.355469 274.1875 447.007812 273.972656 C 447.660156 273.753906 448.3125 273.316406 448.96875 273.097656 Z M 448.96875 276.585938 " fill-opacity="1" fill-rule="nonzero"/><path fill="#0a0080" d="M 404.972656 261.121094 C 407.371094 261.121094 409.328125 261.992188 410.417969 263.300781 C 411.289062 264.386719 411.726562 265.695312 411.945312 267 L 422.613281 267 C 421.960938 261.558594 420.21875 257.855469 416.953125 255.894531 C 413.6875 253.714844 409.765625 252.628906 404.757812 252.628906 C 398.875 252.628906 394.300781 254.371094 391.035156 258.070312 C 387.769531 261.558594 386.027344 266.566406 386.027344 273.097656 C 386.027344 278.761719 387.550781 283.335938 390.601562 287.039062 C 393.648438 290.523438 398.222656 292.484375 404.757812 292.484375 C 411.070312 292.484375 415.863281 290.304688 419.128906 285.949219 C 421.089844 283.335938 422.398438 280.503906 422.613281 277.457031 L 412.160156 277.457031 C 411.945312 279.414062 411.289062 280.941406 410.199219 282.246094 C 409.113281 283.554688 407.371094 284.207031 404.972656 284.207031 C 401.488281 284.207031 399.3125 282.683594 398.003906 279.414062 C 397.351562 277.671875 396.914062 275.496094 396.914062 272.882812 C 396.914062 270.050781 397.351562 267.65625 398.003906 265.914062 C 399.09375 262.644531 401.488281 261.121094 404.972656 261.121094 " fill-opacity="1" fill-rule="nonzero"/><path fill="#0a0080" d="M 382.976562 252.84375 C 361.199219 252.84375 362.503906 272.011719 362.503906 272.011719 L 362.503906 291.613281 L 372.304688 291.613281 L 372.304688 273.316406 C 372.304688 270.269531 372.742188 268.089844 373.394531 266.566406 C 374.703125 263.953125 377.316406 262.644531 381.453125 262.644531 C 381.671875 262.644531 382.105469 262.644531 382.542969 262.644531 C 382.976562 262.644531 383.632812 262.644531 384.285156 262.863281 L 384.285156 252.84375 C 383.847656 252.84375 383.632812 252.84375 383.414062 252.84375 C 383.414062 252.84375 383.195312 252.84375 382.976562 252.84375 " fill-opacity="1" fill-rule="nonzero"/><path fill="#0a0080" d="M 346.824219 281.375 C 346.390625 282.027344 345.953125 282.464844 345.519531 282.898438 C 344.210938 283.988281 342.25 284.425781 340.074219 284.425781 C 337.894531 284.425781 336.371094 284.207031 334.847656 283.117188 C 332.449219 281.59375 330.925781 278.980469 330.925781 275.277344 L 358.148438 275.277344 C 358.148438 272.011719 358.148438 269.613281 357.714844 267.871094 C 357.277344 265.042969 356.191406 262.429688 354.664062 260.03125 C 352.921875 257.417969 350.746094 255.675781 348.132812 254.371094 C 345.519531 253.28125 342.46875 252.628906 339.417969 252.628906 C 333.976562 252.628906 329.402344 254.371094 325.917969 257.855469 C 322.433594 261.339844 320.691406 266.347656 320.691406 272.882812 C 320.691406 279.851562 322.648438 284.859375 326.351562 287.910156 C 330.273438 290.957031 334.628906 292.484375 339.636719 292.484375 C 345.734375 292.484375 350.308594 290.742188 353.792969 287.039062 C 355.535156 285.078125 356.84375 283.117188 357.277344 281.375 Z M 333.539062 263.082031 C 334.847656 261.558594 336.804688 260.902344 339.417969 260.902344 C 341.816406 260.902344 343.777344 261.558594 345.300781 262.863281 C 346.824219 264.171875 347.695312 266.128906 347.914062 268.742188 L 330.925781 268.742188 C 331.363281 266.347656 332.234375 264.386719 333.539062 263.082031 " fill-opacity="1" fill-rule="nonzero"/><path fill="#0a0080" d="M 316.769531 291.613281 L 307.839844 291.613281 L 307.839844 268.960938 C 307.839844 266.785156 307.1875 261.992188 301.308594 261.992188 C 297.386719 261.992188 294.554688 264.824219 294.554688 268.960938 L 294.554688 291.613281 L 285.625 291.613281 L 285.625 268.960938 C 285.625 266.785156 284.972656 261.992188 279.09375 261.992188 C 274.953125 261.992188 272.339844 264.824219 272.339844 268.960938 L 272.339844 291.613281 L 262.976562 291.613281 L 262.976562 269.179688 C 262.976562 259.816406 269.292969 252.628906 278.875 252.628906 C 283.664062 252.628906 287.585938 254.585938 290.199219 257.855469 C 292.8125 254.585938 296.734375 252.628906 301.308594 252.628906 C 311.105469 252.628906 316.988281 259.378906 316.988281 269.179688 L 316.988281 291.613281 Z M 316.769531 291.613281 " fill-opacity="1" fill-rule="nonzero"/><path fill="#0a0080" d="M 498.1875 240.867188 C 498.1875 240.867188 488.167969 239.777344 488.167969 247.835938 L 488.167969 258.507812 C 487.082031 256.765625 485.554688 255.457031 483.8125 254.371094 C 482.070312 253.28125 480.109375 252.84375 477.714844 252.84375 C 472.707031 252.84375 468.785156 254.585938 465.953125 258.289062 C 462.90625 261.992188 461.597656 267.21875 461.597656 273.753906 C 461.597656 279.414062 463.125 283.769531 466.171875 287.472656 C 469.222656 290.957031 475.101562 292.484375 480.328125 292.484375 C 498.625 292.484375 498.40625 276.800781 498.40625 276.800781 Z M 486.425781 281.15625 C 484.902344 283.117188 482.941406 284.207031 480.109375 284.207031 C 477.28125 284.207031 475.320312 283.117188 473.796875 281.15625 C 472.488281 278.980469 471.835938 276.148438 471.835938 272.664062 C 471.835938 269.398438 472.488281 266.785156 473.796875 264.605469 C 475.101562 262.429688 477.28125 261.339844 480.109375 261.339844 C 482.070312 261.339844 483.597656 261.992188 485.121094 263.082031 C 487.515625 265.042969 488.605469 268.527344 488.605469 273.097656 C 488.605469 276.585938 487.953125 279.199219 486.425781 281.15625 " fill-opacity="1" fill-rule="nonzero"/><path fill="#0a0080" d="M 272.777344 354.335938 C 272.777344 355.640625 272.339844 356.949219 271.25 357.820312 C 270.378906 358.691406 269.074219 359.125 267.765625 359.125 L 262.976562 359.125 L 262.976562 324.933594 C 262.976562 318.183594 265.152344 314.042969 268.855469 311.210938 C 271.46875 309.253906 275.609375 307.292969 283.882812 307.511719 C 288.023438 307.726562 292.160156 309.46875 294.773438 312.738281 C 298.039062 316.65625 299.347656 321.230469 299.347656 327.109375 C 299.347656 333.210938 297.820312 338 294.992188 341.703125 C 292.160156 345.40625 288.457031 347.148438 283.882812 347.148438 C 281.488281 347.148438 279.308594 346.710938 277.566406 345.839844 C 275.609375 344.96875 274.082031 343.445312 272.996094 341.484375 L 272.996094 354.335938 Z M 289.328125 327.546875 C 289.328125 323.84375 288.675781 321.011719 287.152344 319.054688 C 285.625 317.09375 283.664062 316.003906 280.835938 316.003906 C 278.222656 316.003906 276.261719 317.09375 274.738281 319.054688 C 273.429688 320.796875 272.777344 323.84375 272.777344 327.546875 C 272.777344 331.25 273.429688 333.863281 274.953125 335.824219 C 276.480469 337.78125 278.4375 338.871094 281.269531 338.871094 C 283.882812 338.871094 285.84375 337.78125 287.152344 335.824219 C 288.457031 333.644531 289.328125 331.03125 289.328125 327.546875 " fill-opacity="1" fill-rule="nonzero"/><g clip-path="url(#e7d45bd44a)"><path fill="#0a0080" d="M 364.683594 344.097656 L 364.683594 341.703125 C 362.941406 344.316406 360.761719 346.058594 357.714844 346.710938 C 354.882812 347.367188 351.832031 347.148438 349.003906 346.058594 C 346.171875 344.96875 343.777344 342.792969 341.597656 339.742188 C 339.636719 336.695312 338.546875 332.554688 338.546875 327.546875 C 338.546875 321.667969 339.855469 316.875 342.6875 313.171875 C 345.300781 309.46875 349.65625 307.726562 355.753906 307.726562 C 361.632812 307.511719 365.117188 308.816406 368.386719 311.429688 C 372.089844 314.261719 374.265625 318.398438 374.265625 325.152344 L 374.265625 345.40625 C 374.265625 351.9375 369.691406 363.699219 355.753906 362.828125 C 347.042969 362.175781 342.25 358.691406 339.417969 350.414062 L 349.875 350.414062 C 350.527344 351.722656 351.832031 352.808594 353.359375 353.464844 C 354.882812 354.117188 356.40625 354.335938 358.148438 354.117188 C 359.675781 353.679688 361.199219 352.808594 362.503906 351.285156 C 363.8125 349.324219 364.464844 347.148438 364.683594 344.097656 M 348.566406 327.546875 C 348.566406 334.082031 350.527344 337.78125 354.230469 338.4375 C 357.933594 339.089844 360.761719 338.21875 362.722656 335.824219 C 363.59375 334.734375 364.246094 333.210938 364.683594 330.8125 C 365.117188 328.636719 365.117188 326.457031 364.683594 324.0625 C 364.246094 321.882812 363.59375 319.925781 362.289062 318.183594 C 360.980469 316.441406 359.238281 315.570312 356.84375 315.570312 C 353.574219 315.570312 351.398438 316.875 350.308594 319.054688 C 349.003906 321.882812 348.566406 324.496094 348.566406 327.546875 " fill-opacity="1" fill-rule="nonzero"/></g><path fill="#0a0080" d="M 330.273438 310.125 C 327.003906 308.597656 323.304688 307.726562 319.164062 307.726562 C 312.847656 307.726562 308.277344 309.46875 305.664062 312.738281 C 303.921875 314.914062 303.050781 317.527344 302.832031 320.796875 L 312.414062 320.796875 C 312.632812 319.269531 313.066406 318.183594 313.71875 317.3125 C 314.808594 316.222656 316.335938 315.570312 318.730469 315.570312 C 320.90625 315.570312 322.433594 315.785156 323.519531 316.441406 C 324.609375 317.09375 325.046875 318.183594 325.046875 319.707031 C 325.046875 321.011719 324.390625 321.882812 322.867188 322.539062 C 321.996094 322.972656 320.691406 323.191406 318.949219 323.410156 L 315.679688 323.84375 C 311.761719 324.28125 308.929688 325.152344 306.96875 326.238281 C 303.265625 328.417969 301.523438 331.683594 301.523438 336.257812 C 301.523438 339.742188 302.613281 342.574219 304.792969 344.535156 C 306.96875 346.496094 309.800781 347.367188 313.285156 347.367188 C 334.847656 348.238281 334.410156 336.039062 334.628906 333.425781 L 334.628906 319.269531 C 335.0625 314.914062 333.539062 311.648438 330.273438 310.125 M 325.261719 331.46875 C 325.261719 334.734375 324.175781 337.128906 322.433594 338.21875 C 320.691406 339.523438 318.730469 340.179688 316.550781 340.179688 C 315.246094 340.179688 313.9375 339.742188 313.066406 339.089844 C 312.195312 338.4375 311.542969 337.128906 311.542969 335.386719 C 311.542969 333.425781 312.414062 332.121094 313.9375 331.25 C 314.808594 330.8125 316.335938 330.160156 318.511719 329.941406 L 320.691406 329.507812 C 321.777344 329.289062 322.648438 329.070312 323.304688 328.851562 C 323.957031 328.636719 324.609375 328.199219 325.261719 327.980469 Z M 325.261719 331.46875 " fill-opacity="1" fill-rule="nonzero"/><path fill="#0a0080" d="M 411.726562 313.171875 C 408.457031 309.253906 403.667969 307.292969 397.351562 307.292969 C 390.816406 307.292969 386.027344 309.253906 382.976562 313.171875 C 379.710938 317.09375 378.1875 321.882812 378.1875 327.328125 C 378.1875 332.773438 379.710938 337.566406 382.976562 341.484375 C 386.246094 345.40625 391.035156 347.367188 397.351562 347.367188 C 403.886719 347.367188 408.675781 345.40625 411.726562 341.484375 C 414.992188 337.566406 416.515625 332.773438 416.515625 327.328125 C 416.515625 321.882812 414.992188 317.3125 411.726562 313.171875 M 403.886719 336.039062 C 402.359375 338 400.183594 339.089844 397.351562 339.089844 C 394.519531 339.089844 392.34375 338 390.816406 336.039062 C 389.292969 334.082031 388.421875 331.03125 388.421875 327.328125 C 388.421875 323.625 389.292969 320.578125 390.816406 318.617188 C 392.34375 316.65625 394.519531 315.570312 397.351562 315.570312 C 400.183594 315.570312 402.359375 316.65625 403.886719 318.617188 C 405.410156 320.578125 406.28125 323.625 406.28125 327.328125 C 406.28125 331.03125 405.410156 333.863281 403.886719 336.039062 " fill-opacity="1" fill-rule="nonzero"/></svg>