<svg xmlns="http://www.w3.org/2000/svg" xmlns:xlink="http://www.w3.org/1999/xlink" width="800" zoomAndPan="magnify" viewBox="0 0 600 599.999999" height="800" preserveAspectRatio="xMidYMid meet" version="1.0"><rect x="-60" width="720" fill="#ffffff" y="-60" height="719.999999" fill-opacity="1"/><rect x="-60" width="720" fill="#fafafa" y="-60" height="719.999999" fill-opacity="1"/><path fill="#0070e0" d="M 478.300781 266.683594 L 468.082031 330.730469 C 468.042969 330.964844 468.058594 331.203125 468.125 331.433594 C 468.1875 331.664062 468.300781 331.875 468.457031 332.054688 C 468.617188 332.238281 468.804688 332.378906 469.027344 332.480469 C 469.246094 332.578125 469.476562 332.625 469.71875 332.625 L 481.8125 332.625 C 482.023438 332.625 482.230469 332.589844 482.433594 332.519531 C 482.632812 332.445312 482.8125 332.339844 482.976562 332.203125 C 483.140625 332.066406 483.273438 331.90625 483.378906 331.71875 C 483.484375 331.535156 483.554688 331.335938 483.589844 331.128906 L 493.804688 267.082031 C 493.84375 266.84375 493.832031 266.609375 493.765625 266.375 C 493.699219 266.144531 493.589844 265.9375 493.429688 265.753906 C 493.273438 265.570312 493.085938 265.429688 492.863281 265.332031 C 492.644531 265.230469 492.414062 265.183594 492.171875 265.1875 L 480.078125 265.1875 C 479.863281 265.179688 479.65625 265.214844 479.457031 265.285156 C 479.253906 265.359375 479.070312 265.460938 478.90625 265.601562 C 478.742188 265.738281 478.609375 265.898438 478.503906 266.085938 C 478.402344 266.273438 478.332031 266.472656 478.300781 266.683594 Z M 465.390625 285.371094 L 453.914062 285.371094 C 453.703125 285.371094 453.496094 285.40625 453.296875 285.476562 C 453.09375 285.550781 452.914062 285.652344 452.75 285.789062 C 452.585938 285.929688 452.453125 286.089844 452.347656 286.273438 C 452.242188 286.460938 452.175781 286.65625 452.140625 286.867188 L 451.761719 289.222656 C 451.761719 289.222656 442.851562 279.585938 427.074219 286.097656 C 418.019531 289.828125 413.675781 297.535156 411.828125 303.179688 C 411.828125 303.179688 405.960938 320.339844 419.230469 329.785156 C 419.230469 329.785156 431.535156 338.867188 445.394531 329.222656 L 445.15625 330.730469 C 445.097656 331.089844 445.15625 331.433594 445.332031 331.757812 C 445.507812 332.082031 445.761719 332.320312 446.097656 332.472656 C 446.3125 332.574219 446.550781 332.625 446.789062 332.625 L 458.269531 332.625 C 458.484375 332.628906 458.691406 332.59375 458.894531 332.523438 C 459.097656 332.453125 459.277344 332.347656 459.441406 332.210938 C 459.605469 332.070312 459.738281 331.910156 459.84375 331.722656 C 459.949219 331.539062 460.015625 331.339844 460.046875 331.128906 L 467.03125 287.269531 C 467.113281 286.765625 466.988281 286.324219 466.652344 285.945312 C 466.320312 285.554688 465.898438 285.363281 465.390625 285.371094 Z M 448.507812 309.613281 C 448.28125 311.144531 447.792969 312.585938 447.042969 313.941406 C 446.289062 315.296875 445.320312 316.472656 444.136719 317.476562 C 442.949219 318.480469 441.621094 319.246094 440.15625 319.773438 C 438.691406 320.300781 437.175781 320.550781 435.621094 320.53125 C 434.390625 320.546875 433.1875 320.371094 432.011719 320.007812 C 427.058594 318.433594 424.234375 313.722656 425.046875 308.617188 C 425.269531 307.085938 425.761719 305.640625 426.511719 304.289062 C 427.265625 302.933594 428.234375 301.757812 429.417969 300.757812 C 430.605469 299.75 431.933594 298.984375 433.398438 298.457031 C 434.863281 297.929688 436.375 297.671875 437.933594 297.691406 C 439.160156 297.675781 440.363281 297.855469 441.539062 298.21875 C 446.523438 299.785156 449.335938 304.503906 448.519531 309.613281 Z M 387.242188 310.824219 C 393.460938 310.824219 399.480469 308.617188 404.207031 304.609375 C 406.566406 302.609375 408.503906 300.265625 410.015625 297.574219 C 411.53125 294.882812 412.527344 292.011719 413.007812 288.960938 C 415.019531 276.277344 405.011719 265.203125 390.828125 265.203125 L 367.972656 265.203125 C 367.761719 265.203125 367.554688 265.238281 367.351562 265.308594 C 367.152344 265.378906 366.96875 265.484375 366.808594 265.621094 C 366.644531 265.761719 366.511719 265.921875 366.40625 266.105469 C 366.300781 266.292969 366.230469 266.488281 366.199219 266.699219 L 355.980469 330.746094 C 355.921875 331.109375 355.980469 331.453125 356.15625 331.777344 C 356.332031 332.101562 356.585938 332.335938 356.921875 332.488281 C 357.140625 332.589844 357.375 332.640625 357.613281 332.640625 L 369.714844 332.640625 C 369.925781 332.644531 370.132812 332.609375 370.335938 332.535156 C 370.535156 332.464844 370.714844 332.359375 370.878906 332.222656 C 371.042969 332.085938 371.175781 331.921875 371.28125 331.738281 C 371.386719 331.554688 371.453125 331.355469 371.488281 331.144531 L 374.488281 312.339844 C 374.519531 312.125 374.589844 311.929688 374.691406 311.742188 C 374.796875 311.554688 374.929688 311.390625 375.09375 311.253906 C 375.257812 311.117188 375.441406 311.011719 375.640625 310.941406 C 375.84375 310.867188 376.050781 310.835938 376.265625 310.839844 Z M 397.363281 288.386719 C 396.613281 293.078125 392.953125 296.527344 385.945312 296.527344 L 376.988281 296.527344 L 379.710938 279.472656 L 388.507812 279.472656 C 395.75 279.484375 398.109375 283.714844 397.363281 288.398438 Z M 397.363281 288.386719 " fill-opacity="1" fill-rule="nonzero"/><path fill="#003087" d="M 342.191406 286.460938 L 328.351562 309.59375 L 321.328125 286.628906 C 321.214844 286.253906 321 285.949219 320.683594 285.714844 C 320.367188 285.484375 320.011719 285.367188 319.617188 285.371094 L 307.128906 285.371094 C 306.792969 285.367188 306.5 285.472656 306.246094 285.6875 C 305.988281 285.902344 305.835938 286.175781 305.785156 286.503906 C 305.753906 286.71875 305.777344 286.929688 305.851562 287.132812 L 318.4375 325.816406 L 307.050781 344.042969 C 306.953125 344.195312 306.890625 344.359375 306.859375 344.535156 C 306.832031 344.714844 306.839844 344.890625 306.882812 345.066406 C 306.925781 345.242188 307 345.398438 307.109375 345.542969 C 307.21875 345.6875 307.351562 345.804688 307.511719 345.890625 C 307.722656 346.015625 307.949219 346.074219 308.195312 346.070312 L 321.648438 346.070312 C 322.039062 346.070312 322.402344 345.976562 322.746094 345.785156 C 323.085938 345.597656 323.355469 345.335938 323.558594 345.003906 L 358.714844 287.410156 C 358.847656 287.207031 358.914062 286.984375 358.917969 286.742188 C 358.921875 286.5 358.867188 286.273438 358.746094 286.0625 C 358.484375 285.609375 358.089844 285.386719 357.566406 285.394531 L 344.117188 285.394531 C 343.726562 285.390625 343.359375 285.484375 343.015625 285.675781 C 342.671875 285.863281 342.398438 286.125 342.191406 286.460938 Z M 300.046875 285.371094 L 288.566406 285.371094 C 288.351562 285.371094 288.144531 285.40625 287.941406 285.476562 C 287.742188 285.550781 287.558594 285.65625 287.398438 285.792969 C 287.234375 285.929688 287.101562 286.09375 286.996094 286.277344 C 286.890625 286.464844 286.820312 286.660156 286.789062 286.871094 L 286.414062 289.226562 C 286.414062 289.226562 277.496094 279.585938 261.71875 286.101562 C 252.671875 289.832031 248.324219 297.539062 246.480469 303.183594 C 246.480469 303.183594 240.609375 320.339844 253.878906 329.785156 C 253.878906 329.785156 266.1875 338.871094 280.042969 329.226562 L 279.804688 330.730469 C 279.746094 331.09375 279.804688 331.4375 279.980469 331.761719 C 280.15625 332.085938 280.410156 332.324219 280.746094 332.472656 C 280.960938 332.574219 281.199219 332.625 281.4375 332.625 L 292.921875 332.625 C 293.132812 332.628906 293.339844 332.59375 293.539062 332.519531 C 293.742188 332.449219 293.921875 332.34375 294.085938 332.207031 C 294.246094 332.070312 294.382812 331.90625 294.488281 331.722656 C 294.589844 331.539062 294.660156 331.339844 294.695312 331.128906 L 301.679688 287.269531 C 301.738281 286.90625 301.679688 286.5625 301.507812 286.238281 C 301.332031 285.914062 301.074219 285.675781 300.738281 285.523438 C 300.519531 285.425781 300.289062 285.375 300.046875 285.371094 Z M 283.164062 309.617188 C 282.9375 311.148438 282.449219 312.589844 281.695312 313.941406 C 280.941406 315.292969 279.976562 316.46875 278.792969 317.46875 C 277.605469 318.476562 276.277344 319.242188 274.8125 319.769531 C 273.347656 320.296875 271.835938 320.550781 270.277344 320.535156 C 269.050781 320.546875 267.851562 320.375 266.675781 320.011719 C 261.726562 318.4375 258.902344 313.726562 259.714844 308.617188 C 259.941406 307.082031 260.433594 305.636719 261.1875 304.28125 C 261.945312 302.925781 262.914062 301.746094 264.101562 300.746094 C 265.296875 299.738281 266.625 298.972656 268.097656 298.449219 C 269.566406 297.921875 271.082031 297.671875 272.640625 297.691406 C 273.863281 297.679688 275.085938 297.859375 276.25 298.222656 C 281.183594 299.785156 283.992188 304.503906 283.179688 309.617188 Z M 221.898438 310.828125 C 225.003906 310.824219 228.015625 310.289062 230.929688 309.21875 C 233.84375 308.148438 236.484375 306.609375 238.851562 304.605469 C 241.207031 302.605469 243.140625 300.261719 244.65625 297.570312 C 246.167969 294.878906 247.164062 292.011719 247.644531 288.960938 C 249.65625 276.277344 239.644531 265.207031 225.464844 265.207031 L 202.609375 265.207031 C 202.398438 265.203125 202.191406 265.238281 201.988281 265.3125 C 201.789062 265.382812 201.605469 265.488281 201.445312 265.625 C 201.28125 265.761719 201.148438 265.921875 201.042969 266.109375 C 200.9375 266.292969 200.867188 266.488281 200.832031 266.699219 L 190.644531 330.730469 C 190.585938 331.09375 190.644531 331.4375 190.820312 331.761719 C 190.996094 332.085938 191.25 332.324219 191.589844 332.472656 C 191.804688 332.574219 192.042969 332.625 192.28125 332.625 L 204.371094 332.625 C 204.585938 332.628906 204.792969 332.59375 204.996094 332.519531 C 205.195312 332.449219 205.378906 332.34375 205.539062 332.207031 C 205.703125 332.070312 205.839844 331.90625 205.941406 331.722656 C 206.046875 331.535156 206.117188 331.339844 206.152344 331.128906 L 209.144531 312.320312 C 209.175781 312.109375 209.246094 311.910156 209.351562 311.722656 C 209.453125 311.539062 209.589844 311.375 209.75 311.238281 C 209.914062 311.101562 210.097656 310.996094 210.300781 310.925781 C 210.5 310.851562 210.710938 310.820312 210.921875 310.824219 L 221.898438 310.824219 Z M 232.019531 288.386719 C 231.273438 293.078125 227.613281 296.527344 220.609375 296.527344 L 211.652344 296.527344 L 214.367188 279.472656 L 223.164062 279.472656 C 230.410156 279.484375 232.765625 283.71875 232.019531 288.398438 Z M 232.019531 288.386719 " fill-opacity="1" fill-rule="nonzero"/><path fill="#001c64" d="M 143.726562 268.496094 C 144 254.355469 132.304688 243.503906 116.226562 243.503906 L 82.972656 243.503906 C 82.585938 243.503906 82.210938 243.570312 81.847656 243.707031 C 81.480469 243.839844 81.152344 244.03125 80.859375 244.28125 C 80.5625 244.535156 80.320312 244.828125 80.132812 245.164062 C 79.945312 245.503906 79.820312 245.863281 79.757812 246.242188 L 66.433594 329.3125 C 66.402344 329.5 66.394531 329.6875 66.40625 329.878906 C 66.417969 330.070312 66.449219 330.253906 66.5 330.4375 C 66.550781 330.621094 66.625 330.796875 66.714844 330.964844 C 66.804688 331.132812 66.910156 331.289062 67.035156 331.433594 C 67.160156 331.582031 67.296875 331.710938 67.449219 331.824219 C 67.601562 331.941406 67.765625 332.039062 67.9375 332.117188 C 68.109375 332.195312 68.289062 332.257812 68.476562 332.296875 C 68.664062 332.339844 68.851562 332.359375 69.042969 332.359375 L 88.746094 332.359375 L 85.667969 351.59375 C 85.636719 351.78125 85.628906 351.972656 85.640625 352.160156 C 85.648438 352.351562 85.683594 352.539062 85.734375 352.722656 C 85.785156 352.90625 85.855469 353.082031 85.945312 353.25 C 86.035156 353.417969 86.144531 353.574219 86.269531 353.71875 C 86.390625 353.863281 86.53125 353.992188 86.683594 354.109375 C 86.835938 354.222656 86.996094 354.320312 87.171875 354.402344 C 87.34375 354.480469 87.523438 354.539062 87.710938 354.582031 C 87.898438 354.621094 88.085938 354.644531 88.277344 354.644531 L 104.328125 354.644531 C 105.101562 354.644531 105.792969 354.367188 106.382812 353.867188 C 106.96875 353.363281 107.066406 352.667969 107.1875 351.902344 L 111.898438 324.25 C 112.019531 323.488281 112.40625 322.496094 112.996094 321.992188 C 113.585938 321.488281 114.097656 321.214844 114.875 321.214844 L 124.695312 321.214844 C 140.441406 321.214844 153.800781 310.050781 156.242188 294.519531 C 157.972656 283.496094 153.234375 273.464844 143.726562 268.492188 Z M 143.726562 268.496094 " fill-opacity="1" fill-rule="nonzero"/><path fill="#0070e0" d="M 93.007812 301.726562 L 88.101562 332.769531 L 85.019531 352.242188 C 84.992188 352.429688 84.980469 352.617188 84.992188 352.808594 C 85.003906 353 85.035156 353.1875 85.089844 353.371094 C 85.140625 353.554688 85.210938 353.726562 85.300781 353.894531 C 85.390625 354.0625 85.5 354.222656 85.621094 354.367188 C 85.746094 354.511719 85.886719 354.640625 86.039062 354.753906 C 86.191406 354.871094 86.351562 354.96875 86.527344 355.046875 C 86.699219 355.125 86.878906 355.1875 87.066406 355.226562 C 87.253906 355.269531 87.441406 355.289062 87.632812 355.289062 L 104.621094 355.289062 C 105.007812 355.289062 105.382812 355.222656 105.746094 355.085938 C 106.109375 354.953125 106.4375 354.761719 106.730469 354.507812 C 107.027344 354.257812 107.265625 353.964844 107.457031 353.628906 C 107.644531 353.289062 107.769531 352.929688 107.828125 352.550781 L 112.304688 324.246094 C 112.367188 323.867188 112.492188 323.507812 112.679688 323.167969 C 112.871094 322.832031 113.109375 322.539062 113.40625 322.285156 C 113.699219 322.035156 114.027344 321.84375 114.390625 321.707031 C 114.753906 321.574219 115.128906 321.507812 115.519531 321.507812 L 125.515625 321.507812 C 141.261719 321.507812 154.621094 310.050781 157.066406 294.519531 C 158.796875 283.496094 153.234375 273.464844 143.726562 268.492188 C 143.699219 269.667969 143.597656 270.839844 143.417969 272 C 140.976562 287.523438 127.613281 298.984375 111.871094 298.984375 L 96.222656 298.984375 C 95.832031 298.988281 95.457031 299.054688 95.09375 299.1875 C 94.730469 299.320312 94.402344 299.515625 94.109375 299.765625 C 93.8125 300.015625 93.570312 300.3125 93.382812 300.648438 C 93.195312 300.988281 93.070312 301.347656 93.007812 301.726562 " fill-opacity="1" fill-rule="nonzero"/><path fill="#003087" d="M 88.097656 332.769531 L 68.335938 332.769531 C 68.144531 332.769531 67.957031 332.75 67.769531 332.707031 C 67.582031 332.667969 67.402344 332.605469 67.230469 332.527344 C 67.054688 332.445312 66.894531 332.347656 66.742188 332.234375 C 66.589844 332.121094 66.449219 331.988281 66.328125 331.84375 C 66.203125 331.699219 66.097656 331.542969 66.007812 331.375 C 65.917969 331.207031 65.84375 331.03125 65.792969 330.847656 C 65.742188 330.664062 65.710938 330.476562 65.699219 330.289062 C 65.6875 330.097656 65.699219 329.90625 65.726562 329.71875 L 79.054688 245.421875 C 79.113281 245.039062 79.238281 244.679688 79.425781 244.34375 C 79.617188 244.003906 79.859375 243.710938 80.152344 243.460938 C 80.445312 243.210938 80.773438 243.015625 81.136719 242.882812 C 81.5 242.75 81.878906 242.683594 82.265625 242.683594 L 116.226562 242.683594 C 132.304688 242.683594 144 254.355469 143.726562 268.492188 C 139.726562 266.398438 135.023438 265.203125 129.875 265.203125 L 101.558594 265.203125 C 101.171875 265.203125 100.796875 265.269531 100.433594 265.402344 C 100.070312 265.539062 99.738281 265.730469 99.445312 265.980469 C 99.148438 266.230469 98.910156 266.527344 98.71875 266.863281 C 98.53125 267.199219 98.40625 267.5625 98.34375 267.941406 L 93.011719 301.726562 Z M 88.097656 332.769531 " fill-opacity="1" fill-rule="nonzero"/></svg>