<svg xmlns="http://www.w3.org/2000/svg" xmlns:xlink="http://www.w3.org/1999/xlink" width="800" zoomAndPan="magnify" viewBox="0 0 600 599.999999" height="800" preserveAspectRatio="xMidYMid meet" version="1.0"><defs><clipPath id="87f6e1b6c6"><path d="M 360 236 L 470.496094 236 L 470.496094 435 L 360 435 Z M 360 236 " clip-rule="nonzero"/></clipPath><clipPath id="b88610c9df"><path d="M 129.246094 117 L 331 117 L 331 482.933594 L 129.246094 482.933594 Z M 129.246094 117 " clip-rule="nonzero"/></clipPath><clipPath id="eff10db756"><path d="M 275 117 L 331 117 L 331 482.933594 L 275 482.933594 Z M 275 117 " clip-rule="nonzero"/></clipPath><clipPath id="f01fdd6cc7"><path d="M 372 236 L 470.496094 236 L 470.496094 428 L 372 428 Z M 372 236 " clip-rule="nonzero"/></clipPath><clipPath id="d326403707"><path d="M 372 427 L 470.496094 427 L 470.496094 477 L 372 477 Z M 372 427 " clip-rule="nonzero"/></clipPath><clipPath id="1d4842612f"><path d="M 458 427 L 470.496094 427 L 470.496094 477 L 458 477 Z M 458 427 " clip-rule="nonzero"/></clipPath></defs><rect x="-60" width="720" fill="#ffffff" y="-60" height="719.999999" fill-opacity="1"/><rect x="-60" width="720" fill="#fafafa" y="-60" height="719.999999" fill-opacity="1"/><g clip-path="url(#87f6e1b6c6)"><path fill="#ffc6a0" d="M 385.375 295.011719 C 383.40625 294.28125 381.3125 293.835938 379.089844 293.835938 C 368.96875 293.835938 360.808594 301.996094 360.808594 312.125 L 360.808594 373.085938 C 360.808594 385.277344 379.089844 415.757812 379.089844 421.851562 L 379.089844 434.042969 L 464.402344 434.042969 C 464.402344 415.757812 470.496094 354.796875 470.496094 330.414062 C 470.496094 285.390625 413.335938 250.71875 385.375 236.082031 L 385.375 295.011719 " fill-opacity="1" fill-rule="nonzero"/></g><path fill="#ffaf7a" d="M 379.28125 236.082031 L 379.28125 295.011719 C 379.28125 295.011719 391.277344 304.21875 391.277344 312.125 L 391.277344 242.6875 C 386.929688 240.179688 382.867188 237.957031 379.28125 236.082031 " fill-opacity="1" fill-rule="nonzero"/><g clip-path="url(#b88610c9df)"><path fill="#68a4d4" d="M 330.339844 440.140625 C 330.339844 463.792969 311.332031 482.8125 287.683594 482.8125 L 171.902344 482.8125 C 148.257812 482.8125 129.246094 463.792969 129.246094 440.140625 L 129.246094 159.722656 C 129.246094 136.070312 148.257812 117.050781 171.902344 117.050781 L 287.683594 117.050781 C 311.332031 117.050781 330.339844 136.070312 330.339844 159.722656 C 330.339844 253.195312 330.339844 346.667969 330.339844 440.140625 " fill-opacity="1" fill-rule="nonzero"/></g><path fill="#e4eff8" d="M 305.964844 440.140625 C 305.964844 450.269531 297.808594 458.429688 287.683594 458.429688 L 171.902344 458.429688 C 161.78125 458.429688 153.621094 450.269531 153.621094 440.140625 L 153.621094 159.722656 C 153.621094 149.597656 161.78125 141.4375 171.902344 141.4375 L 184.089844 141.4375 L 196.277344 153.628906 L 263.308594 153.628906 L 275.496094 141.4375 L 287.683594 141.4375 C 297.808594 141.4375 305.964844 149.597656 305.964844 159.722656 L 305.964844 440.140625 " fill-opacity="1" fill-rule="nonzero"/><path fill="#4992cb" d="M 330.339844 366.988281 L 305.964844 366.988281 L 305.964844 379.179688 L 330.339844 379.179688 L 330.339844 366.988281 " fill-opacity="1" fill-rule="nonzero"/><path fill="#c4dcf0" d="M 184.089844 220.683594 L 184.089844 379.179688 L 305.964844 379.179688 C 305.964844 326.347656 305.964844 273.515625 305.964844 220.683594 L 184.089844 220.683594 " fill-opacity="1" fill-rule="nonzero"/><g clip-path="url(#eff10db756)"><path fill="#4992cb" d="M 275.496094 117.050781 C 299.144531 117.050781 318.152344 136.070312 318.152344 159.722656 C 318.152344 253.195312 318.152344 346.667969 318.152344 440.140625 C 318.152344 463.792969 299.144531 482.8125 275.496094 482.8125 L 287.683594 482.8125 C 311.332031 482.8125 330.339844 463.792969 330.339844 440.140625 C 330.339844 346.667969 330.339844 253.195312 330.339844 159.722656 C 330.339844 136.070312 311.332031 117.050781 287.683594 117.050781 L 275.496094 117.050781 " fill-opacity="1" fill-rule="nonzero"/></g><path fill="#68a4d4" d="M 184.089844 214.589844 L 184.089844 373.085938 L 366.585938 373.085938 C 378.996094 373.085938 385.183594 366.988281 385.183594 354.796875 L 385.183594 232.875 C 385.183594 220.683594 378.996094 214.589844 366.585938 214.589844 L 184.089844 214.589844 " fill-opacity="1" fill-rule="nonzero"/><g clip-path="url(#f01fdd6cc7)"><path fill="#ffaf7a" d="M 385.183594 236.082031 L 385.183594 242.8125 C 414.828125 259.925781 458.308594 291.234375 458.308594 330.414062 C 458.308594 354.796875 452.214844 409.660156 452.214844 427.949219 L 464.402344 427.949219 C 464.402344 409.660156 470.496094 354.796875 470.496094 330.414062 C 470.496094 285.390625 413.148438 250.71875 385.183594 236.082031 Z M 373.1875 294.882812 C 373.125 294.914062 373.0625 294.914062 372.996094 294.949219 C 373.0625 294.980469 373.125 294.980469 373.1875 295.011719 " fill-opacity="1" fill-rule="nonzero"/></g><path fill="#c4dcf0" d="M 354.714844 324.316406 L 354.714844 348.699219 L 366.902344 348.699219 L 366.902344 324.316406 L 354.714844 324.316406 " fill-opacity="1" fill-rule="nonzero"/><path fill="#4992cb" d="M 354.398438 214.589844 C 366.808594 214.589844 372.996094 220.683594 372.996094 232.875 L 372.996094 354.796875 C 372.996094 366.988281 366.808594 373.085938 354.398438 373.085938 L 366.585938 373.085938 C 378.996094 373.085938 385.183594 366.988281 385.183594 354.796875 L 385.183594 232.875 C 385.183594 220.683594 378.996094 214.589844 366.585938 214.589844 L 354.398438 214.589844 " fill-opacity="1" fill-rule="nonzero"/><path fill="#ffc6a0" d="M 379.089844 427.949219 L 379.089844 421.851562 C 379.089844 415.757812 360.808594 385.277344 360.808594 373.085938 L 360.808594 312.125 C 360.808594 301.996094 368.96875 293.835938 379.089844 293.835938 C 389.214844 293.835938 397.371094 301.996094 397.371094 312.125 L 397.371094 427.949219 L 379.089844 427.949219 " fill-opacity="1" fill-rule="nonzero"/><path fill="#ffaf7a" d="M 377.1875 415.757812 C 378.296875 418.421875 379.089844 420.675781 379.089844 421.851562 L 379.089844 434.042969 L 464.402344 434.042969 C 464.402344 430.996094 464.625 420.550781 464.910156 415.757812 L 377.1875 415.757812 " fill-opacity="1" fill-rule="nonzero"/><path fill="#e4eff8" d="M 184.089844 324.316406 L 354.714844 324.316406 L 354.714844 348.699219 L 184.089844 348.699219 L 184.089844 324.316406 " fill-opacity="1" fill-rule="nonzero"/><path fill="#ffaf7a" d="M 372.996094 294.949219 C 380.105469 297.457031 385.183594 304.15625 385.183594 312.125 L 385.183594 354.796875 C 385.183594 358.160156 387.914062 360.890625 391.277344 360.890625 C 394.644531 360.890625 397.371094 358.160156 397.371094 354.796875 L 397.371094 312.125 C 397.371094 301.996094 389.214844 293.835938 379.089844 293.835938 C 376.933594 293.835938 374.902344 294.28125 372.996094 294.949219 " fill-opacity="1" fill-rule="nonzero"/><path fill="#c4dcf0" d="M 171.902344 141.4375 C 161.78125 141.4375 153.621094 149.597656 153.621094 159.722656 L 153.621094 440.140625 C 153.621094 448.425781 159.113281 455.316406 166.667969 457.570312 C 166.160156 455.921875 165.808594 454.171875 165.808594 452.332031 L 165.808594 171.917969 C 165.808594 161.789062 173.96875 153.628906 184.089844 153.628906 L 190.183594 153.628906 L 202.371094 165.820312 L 269.402344 165.820312 L 281.589844 153.628906 L 299.871094 153.628906 C 301.714844 153.628906 303.460938 153.976562 305.109375 154.484375 C 302.855469 146.929688 295.96875 141.4375 287.683594 141.4375 L 275.496094 141.4375 L 263.308594 153.628906 L 202.371094 153.628906 L 190.183594 141.4375 L 171.902344 141.4375 " fill-opacity="1" fill-rule="nonzero"/><path fill="#ffca28" d="M 184.089844 251.164062 L 184.089844 287.742188 L 226.746094 287.742188 C 230.113281 287.742188 232.839844 285.011719 232.839844 281.644531 L 232.839844 257.261719 C 232.839844 253.894531 230.113281 251.164062 226.746094 251.164062 L 184.089844 251.164062 " fill-opacity="1" fill-rule="nonzero"/><g clip-path="url(#d326403707)"><path fill="#68a4d4" d="M 379.089844 427.949219 L 464.402344 427.949219 C 467.769531 427.949219 470.496094 430.679688 470.496094 434.042969 L 470.496094 470.621094 C 470.496094 473.984375 467.769531 476.714844 464.402344 476.714844 L 379.089844 476.714844 C 375.726562 476.714844 372.996094 473.984375 372.996094 470.621094 L 372.996094 434.042969 C 372.996094 430.679688 375.726562 427.949219 379.089844 427.949219 " fill-opacity="1" fill-rule="nonzero"/></g><g clip-path="url(#1d4842612f)"><path fill="#4992cb" d="M 458.308594 427.949219 L 458.308594 476.714844 L 464.402344 476.714844 C 467.769531 476.714844 470.496094 473.984375 470.496094 470.621094 L 470.496094 434.042969 C 470.496094 430.679688 467.769531 427.949219 464.402344 427.949219 L 458.308594 427.949219 " fill-opacity="1" fill-rule="nonzero"/></g><path fill="#4992cb" d="M 184.089844 214.589844 L 184.089844 373.085938 L 196.277344 373.085938 L 196.277344 214.589844 L 184.089844 214.589844 " fill-opacity="1" fill-rule="nonzero"/><path fill="#ecb200" d="M 184.089844 251.164062 L 184.089844 287.742188 L 196.277344 287.742188 L 196.277344 251.164062 L 184.089844 251.164062 " fill-opacity="1" fill-rule="nonzero"/><path fill="#c4dcf0" d="M 184.089844 324.316406 L 184.089844 348.699219 L 196.277344 348.699219 L 196.277344 324.316406 L 184.089844 324.316406 " fill-opacity="1" fill-rule="nonzero"/><path fill="#c4dcf0" d="M 190.183594 208.492188 C 190.183594 200.363281 177.996094 200.363281 177.996094 208.492188 L 177.996094 379.179688 C 177.996094 387.308594 190.183594 387.308594 190.183594 379.179688 L 190.183594 208.492188 " fill-opacity="1" fill-rule="nonzero"/></svg>